<svg id="visual" viewBox="0 0 540 960" width="540" height="960" xmlns="http://www.w3.org/2000/svg" xmlns:xlink="http://www.w3.org/1999/xlink" version="1.1"><path d="M0 202L12.8 214.7C25.7 227.3 51.3 252.7 77 264.3C102.7 276 128.3 274 154 276.3C179.7 278.7 205.3 285.3 231.2 278.3C257 271.3 283 250.7 308.8 250.2C334.7 249.7 360.3 269.3 386 272.8C411.7 276.3 437.3 263.7 463 266.7C488.7 269.7 514.3 288.3 527.2 297.7L540 307L540 0L527.2 0C514.3 0 488.7 0 463 0C437.3 0 411.7 0 386 0C360.3 0 334.7 0 308.8 0C283 0 257 0 231.2 0C205.3 0 179.7 0 154 0C128.3 0 102.7 0 77 0C51.3 0 25.7 0 12.8 0L0 0Z" fill="#edeeee"></path><path d="M0 194L12.8 197C25.7 200 51.3 206 77 212.3C102.7 218.7 128.3 225.3 154 226.8C179.7 228.3 205.3 224.7 231.2 212.7C257 200.7 283 180.3 308.8 184.8C334.7 189.3 360.3 218.7 386 227C411.7 235.3 437.3 222.7 463 218.5C488.7 214.3 514.3 218.7 527.2 220.8L540 223L540 0L527.2 0C514.3 0 488.7 0 463 0C437.3 0 411.7 0 386 0C360.3 0 334.7 0 308.8 0C283 0 257 0 231.2 0C205.3 0 179.7 0 154 0C128.3 0 102.7 0 77 0C51.3 0 25.7 0 12.8 0L0 0Z" fill="#f1f2f2"></path><path d="M0 148L12.8 152.7C25.7 157.3 51.3 166.7 77 160.8C102.7 155 128.3 134 154 135.5C179.7 137 205.3 161 231.2 161.2C257 161.3 283 137.7 308.8 140.2C334.7 142.7 360.3 171.3 386 174.2C411.7 177 437.3 154 463 154.2C488.7 154.3 514.3 177.7 527.2 189.3L540 201L540 0L527.2 0C514.3 0 488.7 0 463 0C437.3 0 411.7 0 386 0C360.3 0 334.7 0 308.8 0C283 0 257 0 231.2 0C205.3 0 179.7 0 154 0C128.3 0 102.7 0 77 0C51.3 0 25.7 0 12.8 0L0 0Z" fill="#f6f6f6"></path><path d="M0 98L12.8 99.3C25.7 100.7 51.3 103.3 77 107.5C102.7 111.7 128.3 117.3 154 120.5C179.7 123.7 205.3 124.3 231.2 125.8C257 127.3 283 129.7 308.8 125.2C334.7 120.7 360.3 109.3 386 111.3C411.7 113.3 437.3 128.7 463 131.8C488.7 135 514.3 126 527.2 121.5L540 117L540 0L527.2 0C514.3 0 488.7 0 463 0C437.3 0 411.7 0 386 0C360.3 0 334.7 0 308.8 0C283 0 257 0 231.2 0C205.3 0 179.7 0 154 0C128.3 0 102.7 0 77 0C51.3 0 25.7 0 12.8 0L0 0Z" fill="#fafafa"></path><path d="M0 43L12.8 49.7C25.7 56.3 51.3 69.7 77 74.5C102.7 79.3 128.3 75.7 154 69.2C179.7 62.7 205.3 53.3 231.2 56.8C257 60.3 283 76.7 308.8 75.7C334.7 74.7 360.3 56.3 386 53C411.7 49.7 437.3 61.3 463 67.7C488.7 74 514.3 75 527.2 75.5L540 76L540 0L527.2 0C514.3 0 488.7 0 463 0C437.3 0 411.7 0 386 0C360.3 0 334.7 0 308.8 0C283 0 257 0 231.2 0C205.3 0 179.7 0 154 0C128.3 0 102.7 0 77 0C51.3 0 25.7 0 12.8 0L0 0Z" fill="#ffffff"></path></svg>